<mxfile host="app.diagrams.net" agent="Mozilla/5.0 (Windows NT 10.0; Win64; x64) AppleWebKit/537.36 (KHTML, like Gecko) Chrome/131.0.0.0 Safari/537.36 Edg/131.0.0.0" version="25.0.3">
  <diagram name="Page-1" id="dGUByay9MgUqGsEB4NwG">
    <mxGraphModel dx="1339" dy="815" grid="1" gridSize="10" guides="1" tooltips="1" connect="1" arrows="1" fold="1" page="1" pageScale="1" pageWidth="850" pageHeight="1100" math="0" shadow="0">
      <root>
        <mxCell id="0" />
        <mxCell id="1" parent="0" />
        <mxCell id="lyA1fKI-bNgzmMvVJLc6-4" value="" style="edgeStyle=orthogonalEdgeStyle;rounded=0;orthogonalLoop=1;jettySize=auto;html=1;" edge="1" parent="1" source="lyA1fKI-bNgzmMvVJLc6-2" target="lyA1fKI-bNgzmMvVJLc6-3">
          <mxGeometry relative="1" as="geometry" />
        </mxCell>
        <mxCell id="lyA1fKI-bNgzmMvVJLc6-2" value="&lt;font style=&quot;font-size: 14px;&quot;&gt;User open the application and login&lt;/font&gt;" style="rounded=1;whiteSpace=wrap;html=1;" vertex="1" parent="1">
          <mxGeometry x="160" y="200" width="160" height="80" as="geometry" />
        </mxCell>
        <mxCell id="lyA1fKI-bNgzmMvVJLc6-8" value="" style="edgeStyle=orthogonalEdgeStyle;rounded=0;orthogonalLoop=1;jettySize=auto;html=1;" edge="1" parent="1" source="lyA1fKI-bNgzmMvVJLc6-3" target="lyA1fKI-bNgzmMvVJLc6-7">
          <mxGeometry relative="1" as="geometry" />
        </mxCell>
        <mxCell id="lyA1fKI-bNgzmMvVJLc6-11" value="" style="edgeStyle=orthogonalEdgeStyle;rounded=0;orthogonalLoop=1;jettySize=auto;html=1;" edge="1" parent="1" source="lyA1fKI-bNgzmMvVJLc6-3" target="lyA1fKI-bNgzmMvVJLc6-10">
          <mxGeometry relative="1" as="geometry" />
        </mxCell>
        <mxCell id="lyA1fKI-bNgzmMvVJLc6-3" value="&lt;font style=&quot;font-size: 14px;&quot;&gt;Are the credentials correct?&lt;/font&gt;" style="rhombus;whiteSpace=wrap;html=1;rounded=1;" vertex="1" parent="1">
          <mxGeometry x="150" y="350" width="180" height="100" as="geometry" />
        </mxCell>
        <mxCell id="lyA1fKI-bNgzmMvVJLc6-7" value="&lt;font style=&quot;font-size: 14px;&quot;&gt;Reject login&lt;/font&gt;" style="rounded=1;whiteSpace=wrap;html=1;" vertex="1" parent="1">
          <mxGeometry x="420" y="360" width="140" height="80" as="geometry" />
        </mxCell>
        <mxCell id="lyA1fKI-bNgzmMvVJLc6-9" value="No" style="text;html=1;align=center;verticalAlign=middle;whiteSpace=wrap;rounded=0;" vertex="1" parent="1">
          <mxGeometry x="340" y="370" width="60" height="30" as="geometry" />
        </mxCell>
        <mxCell id="lyA1fKI-bNgzmMvVJLc6-15" value="" style="edgeStyle=orthogonalEdgeStyle;rounded=0;orthogonalLoop=1;jettySize=auto;html=1;" edge="1" parent="1" source="lyA1fKI-bNgzmMvVJLc6-10" target="lyA1fKI-bNgzmMvVJLc6-14">
          <mxGeometry relative="1" as="geometry" />
        </mxCell>
        <mxCell id="lyA1fKI-bNgzmMvVJLc6-10" value="&lt;font style=&quot;font-size: 14px;&quot;&gt;Go to dashboard&lt;/font&gt;" style="whiteSpace=wrap;html=1;rounded=1;" vertex="1" parent="1">
          <mxGeometry x="160" y="520" width="160" height="80" as="geometry" />
        </mxCell>
        <mxCell id="lyA1fKI-bNgzmMvVJLc6-12" value="Yes" style="text;html=1;align=center;verticalAlign=middle;whiteSpace=wrap;rounded=0;" vertex="1" parent="1">
          <mxGeometry x="240" y="470" width="60" height="30" as="geometry" />
        </mxCell>
        <mxCell id="lyA1fKI-bNgzmMvVJLc6-17" value="" style="edgeStyle=orthogonalEdgeStyle;rounded=0;orthogonalLoop=1;jettySize=auto;html=1;" edge="1" parent="1" source="lyA1fKI-bNgzmMvVJLc6-14" target="lyA1fKI-bNgzmMvVJLc6-16">
          <mxGeometry relative="1" as="geometry" />
        </mxCell>
        <mxCell id="lyA1fKI-bNgzmMvVJLc6-14" value="&lt;font style=&quot;font-size: 14px;&quot;&gt;Go to Products, Employees, Customers or Statistics&lt;/font&gt;" style="whiteSpace=wrap;html=1;rounded=1;" vertex="1" parent="1">
          <mxGeometry x="420" y="520" width="140" height="80" as="geometry" />
        </mxCell>
        <mxCell id="lyA1fKI-bNgzmMvVJLc6-21" value="" style="edgeStyle=orthogonalEdgeStyle;rounded=0;orthogonalLoop=1;jettySize=auto;html=1;" edge="1" parent="1" source="lyA1fKI-bNgzmMvVJLc6-16" target="lyA1fKI-bNgzmMvVJLc6-20">
          <mxGeometry relative="1" as="geometry" />
        </mxCell>
        <mxCell id="lyA1fKI-bNgzmMvVJLc6-16" value="&lt;font style=&quot;font-size: 14px;&quot;&gt;Enter information&lt;/font&gt;" style="whiteSpace=wrap;html=1;rounded=1;" vertex="1" parent="1">
          <mxGeometry x="670.63" y="520" width="120" height="80" as="geometry" />
        </mxCell>
        <mxCell id="lyA1fKI-bNgzmMvVJLc6-23" value="" style="edgeStyle=orthogonalEdgeStyle;rounded=0;orthogonalLoop=1;jettySize=auto;html=1;" edge="1" parent="1" source="lyA1fKI-bNgzmMvVJLc6-20" target="lyA1fKI-bNgzmMvVJLc6-22">
          <mxGeometry relative="1" as="geometry" />
        </mxCell>
        <mxCell id="lyA1fKI-bNgzmMvVJLc6-28" value="" style="edgeStyle=orthogonalEdgeStyle;rounded=0;orthogonalLoop=1;jettySize=auto;html=1;" edge="1" parent="1" source="lyA1fKI-bNgzmMvVJLc6-20" target="lyA1fKI-bNgzmMvVJLc6-27">
          <mxGeometry relative="1" as="geometry" />
        </mxCell>
        <mxCell id="lyA1fKI-bNgzmMvVJLc6-20" value="&lt;font style=&quot;font-size: 14px;&quot;&gt;Are the Product ID, Employee ID, Customer ID, Sale ID correct&lt;/font&gt;" style="rhombus;whiteSpace=wrap;html=1;rounded=1;" vertex="1" parent="1">
          <mxGeometry x="640" y="657.5" width="181.25" height="130" as="geometry" />
        </mxCell>
        <mxCell id="lyA1fKI-bNgzmMvVJLc6-24" value="" style="edgeStyle=orthogonalEdgeStyle;rounded=0;orthogonalLoop=1;jettySize=auto;html=1;" edge="1" parent="1" source="lyA1fKI-bNgzmMvVJLc6-22" target="lyA1fKI-bNgzmMvVJLc6-14">
          <mxGeometry relative="1" as="geometry" />
        </mxCell>
        <mxCell id="lyA1fKI-bNgzmMvVJLc6-22" value="&lt;font style=&quot;font-size: 14px;&quot;&gt;Display error box&lt;/font&gt;" style="whiteSpace=wrap;html=1;rounded=1;" vertex="1" parent="1">
          <mxGeometry x="420" y="685" width="140" height="75" as="geometry" />
        </mxCell>
        <mxCell id="lyA1fKI-bNgzmMvVJLc6-25" value="No" style="text;html=1;align=center;verticalAlign=middle;whiteSpace=wrap;rounded=0;" vertex="1" parent="1">
          <mxGeometry x="580" y="690" width="60" height="30" as="geometry" />
        </mxCell>
        <mxCell id="lyA1fKI-bNgzmMvVJLc6-26" value="Yes" style="text;html=1;align=center;verticalAlign=middle;whiteSpace=wrap;rounded=0;" vertex="1" parent="1">
          <mxGeometry x="490" y="627.5" width="60" height="30" as="geometry" />
        </mxCell>
        <mxCell id="lyA1fKI-bNgzmMvVJLc6-30" value="" style="edgeStyle=orthogonalEdgeStyle;rounded=0;orthogonalLoop=1;jettySize=auto;html=1;" edge="1" parent="1" source="lyA1fKI-bNgzmMvVJLc6-27" target="lyA1fKI-bNgzmMvVJLc6-29">
          <mxGeometry relative="1" as="geometry" />
        </mxCell>
        <mxCell id="lyA1fKI-bNgzmMvVJLc6-27" value="&lt;font style=&quot;font-size: 14px;&quot;&gt;Perform add, update, delete function&lt;/font&gt;" style="whiteSpace=wrap;html=1;rounded=1;" vertex="1" parent="1">
          <mxGeometry x="650.9499999999999" y="840" width="159.36" height="80" as="geometry" />
        </mxCell>
        <mxCell id="lyA1fKI-bNgzmMvVJLc6-29" value="&lt;font style=&quot;font-size: 14px;&quot;&gt;Exit to main menu and return to update datagridview&lt;/font&gt;" style="whiteSpace=wrap;html=1;rounded=1;" vertex="1" parent="1">
          <mxGeometry x="420" y="840" width="140" height="80" as="geometry" />
        </mxCell>
      </root>
    </mxGraphModel>
  </diagram>
</mxfile>
